<?xml version="1.0" encoding="UTF-8"?>
<svg xmlns="http://www.w3.org/2000/svg" xmlns:xlink="http://www.w3.org/1999/xlink" width="649pt" height="250pt" viewBox="0 0 649 250" version="1.2">
<g id="surface1">
<path style=" stroke:none;fill-rule:nonzero;fill:rgb(0%,0%,0%);fill-opacity:1;" d="M 112.640625 108.160156 C 112.640625 102.378906 107.171875 101.089844 100.03125 101.089844 L 90.070312 101.089844 L 90.070312 115.230469 L 100.03125 115.230469 C 107.179688 115.230469 112.640625 114.019531 112.640625 108.160156 "/>
<path style=" stroke:none;fill-rule:nonzero;fill:rgb(0%,0%,0%);fill-opacity:1;" d="M 158.878906 128.089844 L 175.359375 128.089844 L 167.160156 104.261719 Z M 158.878906 128.089844 "/>
<path style=" stroke:none;fill-rule:nonzero;fill:rgb(0%,0%,0%);fill-opacity:1;" d="M 564.710938 101.601562 L 564.710938 151.210938 L 549.558594 151.210938 L 549.558594 101.601562 L 529.128906 101.601562 L 529.128906 88.671875 L 585.25 88.671875 L 585.25 101.601562 Z M 523.859375 151.210938 L 505.539062 151.210938 L 479.921875 108.050781 L 479.921875 151.210938 L 465.390625 151.210938 L 465.390625 88.628906 L 483.710938 88.628906 L 509.328125 131.789062 L 509.328125 88.628906 L 523.859375 88.628906 Z M 456.800781 101.601562 L 422.898438 101.601562 L 422.898438 112.582031 L 454.96875 112.582031 L 454.96875 125.628906 L 422.898438 125.628906 L 422.898438 138.25 L 456.800781 138.25 L 456.800781 151.300781 L 407.820312 151.300781 L 407.820312 88.640625 L 456.800781 88.640625 L 456.800781 101.609375 Z M 397.160156 151.210938 L 382.550781 151.210938 L 382.550781 101.089844 L 368.289062 151.25 L 354.109375 151.25 L 339.738281 101.171875 L 339.738281 151.25 L 325.128906 151.25 L 325.128906 88.628906 L 348.921875 88.628906 L 361.179688 133.511719 L 373.679688 88.628906 L 397.191406 88.628906 L 397.191406 151.210938 L 397.148438 151.210938 Z M 316.550781 101.601562 L 282.648438 101.601562 L 282.648438 112.582031 L 314.71875 112.582031 L 314.71875 125.628906 L 282.648438 125.628906 L 282.648438 138.25 L 316.550781 138.25 L 316.550781 151.300781 L 267.570312 151.300781 L 267.570312 88.640625 L 316.550781 88.640625 L 316.550781 101.609375 Z M 230.511719 152.339844 C 210.589844 152.339844 198.519531 139.921875 198.519531 119.878906 C 198.519531 99.839844 211.019531 87.609375 230.941406 87.609375 C 246.988281 87.609375 258.238281 97.808594 260.46875 112.019531 L 245.671875 112.019531 C 243.988281 103.46875 237.578125 99.75 230.441406 99.75 C 221.460938 99.75 214.511719 107.089844 214.511719 119.871094 C 214.511719 132.648438 221.460938 140.140625 230.640625 140.140625 C 237.160156 140.140625 244.390625 137.371094 246.148438 127.871094 L 260.949219 127.871094 C 258.609375 142.398438 246.648438 152.320312 230.519531 152.320312 L 230.519531 152.339844 Z M 183.289062 151.210938 L 179.421875 140.082031 L 154.738281 140.082031 L 150.949219 151.210938 L 134.898438 151.210938 L 158.960938 88.628906 L 175.519531 88.628906 L 199.660156 151.210938 Z M 512.609375 0 L 100.71875 88.671875 C 116.730469 88.832031 128.570312 92.808594 128.570312 108.011719 C 128.570312 117.230469 123.378906 122.5 116.070312 125.269531 L 131.851562 151.25 L 114.121094 151.25 L 100.289062 127.691406 L 90.058594 127.691406 L 90.058594 151.25 L 74.980469 151.25 L 74.980469 94.21875 L 0 110.351562 L 135.679688 250 L 648.289062 139.648438 Z M 512.609375 0 "/>
</g>
</svg>
