<?xml version="1.0" encoding="UTF-8"?>
<svg xmlns="http://www.w3.org/2000/svg" xmlns:xlink="http://www.w3.org/1999/xlink" width="861pt" height="100pt" viewBox="0 0 861 100" version="1.2">
<g id="surface1">
<path style=" stroke:none;fill-rule:nonzero;fill:rgb(0%,0%,0%);fill-opacity:1;" d="M 23.609375 20.78125 L 23.609375 42.671875 L 39.21875 42.671875 C 50.390625 42.671875 59 40.78125 59 31.730469 C 59 22.679688 50.449219 20.789062 39.21875 20.789062 L 23.609375 20.789062 Z M 39.660156 61.890625 L 23.660156 61.890625 L 23.660156 98.28125 L 0 98.28125 L 0 1.609375 L 38.550781 1.609375 C 64.488281 1.609375 83.988281 7.5 83.988281 31.5 C 83.988281 45.78125 75.820312 53.890625 64.378906 58.171875 L 89.101562 98.28125 L 61.328125 98.28125 L 39.671875 61.890625 Z M 39.660156 61.890625 "/>
<path style=" stroke:none;fill-rule:nonzero;fill:rgb(0%,0%,0%);fill-opacity:1;" d="M 131.488281 62.558594 L 157.320312 62.558594 L 144.488281 25.78125 Z M 131.601562 1.609375 L 157.539062 1.609375 L 195.371094 98.28125 L 169.710938 98.28125 L 163.660156 81.058594 L 125 81.058594 L 119.058594 98.28125 L 93.949219 98.28125 Z M 131.601562 1.609375 "/>
<path style=" stroke:none;fill-rule:nonzero;fill:rgb(0%,0%,0%);fill-opacity:1;" d="M 291.410156 62.28125 C 287.800781 84.671875 269.019531 100 243.75 100 C 212.53125 100 193.589844 80.78125 193.589844 49.890625 C 193.589844 19 213.25 0 244.410156 0 C 269.578125 0 287.238281 15.71875 290.679688 37.71875 L 267.460938 37.71875 C 264.851562 24.5 254.738281 18.78125 243.570312 18.78125 C 229.460938 18.78125 218.570312 30.109375 218.570312 49.839844 C 218.570312 69.570312 229.460938 81.171875 243.839844 81.171875 C 254.058594 81.171875 265.390625 76.890625 268.171875 62.230469 L 291.390625 62.230469 L 291.390625 62.289062 Z M 291.410156 62.28125 "/>
<path style=" stroke:none;fill-rule:nonzero;fill:rgb(0%,0%,0%);fill-opacity:1;" d="M 301.910156 1.609375 L 378.679688 1.609375 L 378.679688 21.609375 L 325.519531 21.609375 L 325.519531 38.550781 L 375.789062 38.550781 L 375.789062 58.660156 L 325.519531 58.660156 L 325.519531 78.101562 L 378.679688 78.101562 L 378.679688 98.269531 L 301.910156 98.269531 Z M 301.910156 1.609375 "/>
<path style=" stroke:none;fill-rule:nonzero;fill:rgb(0%,0%,0%);fill-opacity:1;" d="M 437.5 98.28125 L 415 20.949219 L 415 98.28125 L 392.058594 98.28125 L 392.058594 1.609375 L 429.390625 1.609375 L 448.550781 70.941406 L 468.160156 1.609375 L 505.039062 1.609375 L 505.039062 98.28125 L 482.101562 98.28125 L 482.101562 20.78125 L 459.769531 98.28125 Z M 437.5 98.28125 "/>
<path style=" stroke:none;fill-rule:nonzero;fill:rgb(0%,0%,0%);fill-opacity:1;" d="M 521.769531 1.609375 L 598.539062 1.609375 L 598.539062 21.609375 L 545.378906 21.609375 L 545.378906 38.550781 L 595.648438 38.550781 L 595.648438 58.660156 L 545.378906 58.660156 L 545.378906 78.101562 L 598.539062 78.101562 L 598.539062 98.269531 L 521.769531 98.269531 Z M 521.769531 1.609375 "/>
<path style=" stroke:none;fill-rule:nonzero;fill:rgb(0%,0%,0%);fill-opacity:1;" d="M 674.910156 98.28125 L 634.691406 31.609375 L 634.691406 98.28125 L 611.910156 98.28125 L 611.910156 1.609375 L 640.628906 1.609375 L 680.851562 68.28125 L 680.851562 1.609375 L 703.621094 1.609375 L 703.621094 98.28125 L 674.898438 98.28125 Z M 674.910156 98.28125 "/>
<path style=" stroke:none;fill-rule:nonzero;fill:rgb(0%,0%,0%);fill-opacity:1;" d="M 743.96875 21.609375 L 711.921875 21.609375 L 711.921875 1.609375 L 799.910156 1.609375 L 799.910156 21.609375 L 767.75 21.609375 L 767.75 98.28125 L 743.980469 98.28125 L 743.980469 21.609375 Z M 743.96875 21.609375 "/>
<path style=" stroke:none;fill-rule:nonzero;fill:rgb(0%,0%,0%);fill-opacity:1;" d="M 837.058594 16.441406 L 831.78125 16.441406 L 831.78125 22.441406 L 837.058594 22.441406 C 839.449219 22.441406 840.449219 21.160156 840.449219 19.550781 C 840.449219 18.109375 839.449219 16.441406 837.058594 16.441406 M 831.78125 27.941406 L 831.78125 37.441406 L 824.558594 37.441406 L 824.558594 10.832031 L 835.21875 10.832031 C 842.269531 10.832031 847.660156 12.609375 847.660156 19.550781 C 847.660156 23.550781 845.660156 25.71875 842.769531 26.878906 L 849.269531 37.488281 L 841.269531 37.488281 L 835.660156 27.988281 L 831.769531 27.988281 L 831.769531 27.929688 Z M 836.058594 45 C 847.21875 45 855.5 36.890625 855.5 25.109375 C 855.5 13.332031 847.21875 5.050781 836.058594 5.050781 C 824.898438 5.050781 816.558594 13.109375 816.558594 25.109375 C 816.558594 37.109375 825.109375 45 836.058594 45 M 836.058594 0 C 849.890625 0 861 10.28125 861 25.109375 C 861 39.941406 849.839844 50 836.058594 50 C 822.28125 50 811.011719 39.890625 811.011719 25.109375 C 811.011719 10.332031 822.171875 0 836.058594 0 "/>
</g>
</svg>
